<svg width="362" height="100" viewBox="0 0 362 100" fill="none" xmlns="http://www.w3.org/2000/svg">
<g id="Campus Vault" filter="url(#filter0_i_1_3)">
<path d="M50.208 67.208C50.528 66.6 51.296 65.944 52.512 65.24C53.696 64.568 54.256 64.536 54.192 65.144C54.192 65.304 54.128 65.512 54 65.768C52.336 69.288 49.872 72.824 46.608 76.376C43.376 79.928 39.68 83 35.52 85.592C31.36 88.216 27.056 89.864 22.608 90.536C18.192 91.208 13.952 90.44 9.888 88.232C8.224 87.24 6.768 86.008 5.52 84.536C4.272 83.096 3.296 81.544 2.592 79.88C1.888 78.248 1.344 76.424 0.96 74.408C0.576 72.392 0.336 70.44 0.24 68.552C0.176 66.632 0.224 64.6 0.384 62.456C0.544 60.312 0.752 58.392 1.008 56.696C1.296 54.968 1.632 53.192 2.016 51.368C3.008 46.504 4.272 41.752 5.808 37.112C7.376 32.472 9.296 27.864 11.568 23.288C13.872 18.712 16.416 14.504 19.2 10.664C19.872 9.736 20.576 8.84 21.312 7.976C22.048 7.112 22.896 6.216 23.856 5.288C24.848 4.35999 25.808 3.56 26.736 2.888C27.696 2.184 28.704 1.64 29.76 1.256C30.848 0.871998 31.872 0.711998 32.832 0.775997C33.824 0.839996 34.8 1.24 35.76 1.976C36.752 2.68 37.632 3.72 38.4 5.096C39.36 6.792 40.032 8.776 40.416 11.048C40.832 13.32 41.008 15.512 40.944 17.624C40.912 19.704 40.688 22.056 40.272 24.68C39.856 27.304 39.424 29.512 38.976 31.304C38.56 33.096 38.032 35.128 37.392 37.4C37.2 38.104 36.448 38.872 35.136 39.704C33.952 40.472 33.328 40.6 33.264 40.088C33.264 39.992 33.28 39.88 33.312 39.752C33.792 38.088 34.176 36.696 34.464 35.576C34.752 34.456 35.104 32.92 35.52 30.968C35.968 28.984 36.288 27.256 36.48 25.784C36.704 24.312 36.864 22.632 36.96 20.744C37.056 18.824 37.008 17.128 36.816 15.656C36.656 14.184 36.32 12.712 35.808 11.24C35.296 9.736 34.608 8.456 33.744 7.4C29.872 2.568 25.136 4.776 19.536 14.024C17.392 17.576 15.008 22.504 12.384 28.808C4.864 46.888 2.56 61.544 5.472 72.776C6.24 75.72 7.376 78.184 8.88 80.168C10.416 82.184 12.144 83.624 14.064 84.488C15.984 85.384 18.08 85.896 20.352 86.024C22.656 86.152 24.976 85.896 27.312 85.256C29.68 84.648 32.032 83.752 34.368 82.568C36.704 81.416 38.864 80.04 40.848 78.44C42.864 76.872 44.688 75.112 46.32 73.16C47.984 71.24 49.28 69.256 50.208 67.208ZM77.7506 57.464C78.0386 57.784 78.0226 58.216 77.7026 58.76C77.3826 59.304 77.0306 59.752 76.6466 60.104C76.6146 60.136 76.5506 60.2 76.4546 60.296C70.1506 65.992 66.4546 66.872 65.3666 62.936C65.0786 61.944 64.9026 60.936 64.8386 59.912C64.3906 60.616 63.9266 61.288 63.4466 61.928C62.3906 63.24 61.2066 64.424 59.8946 65.48C58.5826 66.536 57.3186 67.048 56.1026 67.016C55.2066 66.984 54.3266 66.504 53.4626 65.576C52.6306 64.616 51.9586 63.592 51.4466 62.504C50.6466 60.872 50.3746 59.144 50.6306 57.32C50.9186 55.464 51.4786 53.752 52.3106 52.184C53.1746 50.616 54.2626 49.16 55.5746 47.816C57.6866 45.672 59.5266 44.712 61.0946 44.936C62.5346 45.16 64.0546 46.504 65.6546 48.968C65.9106 48.104 66.1186 47.272 66.2786 46.472C66.3426 46.088 66.7586 46.328 67.5266 47.192C68.5506 48.376 68.9986 49.32 68.8706 50.024C68.8386 50.056 68.8226 50.088 68.8226 50.12C68.8226 50.152 68.8226 50.168 68.8226 50.168V50.216C68.8546 53.224 68.9506 55.704 69.1106 57.656C69.1106 57.72 69.1266 57.912 69.1586 58.232C69.1906 58.552 69.2066 58.792 69.2066 58.952C69.2386 59.08 69.2706 59.288 69.3026 59.576C69.3666 59.864 69.4306 60.104 69.4946 60.296C69.5906 60.456 69.7026 60.632 69.8306 60.824C69.9586 60.984 70.1026 61.112 70.2626 61.208C70.5186 61.304 70.7426 61.368 70.9346 61.4C71.1586 61.432 71.4146 61.368 71.7026 61.208C72.0226 61.048 72.2786 60.904 72.4706 60.776C72.6946 60.648 72.9506 60.456 73.2386 60.2C73.5586 59.944 73.7986 59.736 73.9586 59.576C74.1506 59.416 74.3586 59.224 74.5826 59C74.8386 58.776 75.0146 58.616 75.1106 58.52C76.3906 57.336 77.2706 56.984 77.7506 57.464ZM56.3906 62.12C60.1346 60.168 62.9986 56.456 64.9826 50.984C64.8546 50.824 64.7426 50.664 64.6466 50.504C64.1666 49.736 63.5906 49.288 62.9186 49.16C62.2466 49 61.5906 49.064 60.9506 49.352C60.3106 49.64 59.6386 50.088 58.9346 50.696C58.2626 51.272 57.6866 51.848 57.2066 52.424C56.7266 53 56.2946 53.576 55.9106 54.152C54.9186 55.592 54.1506 57.32 53.6066 59.336C52.9666 61.704 53.3186 62.824 54.6626 62.696C55.1426 62.664 55.7186 62.472 56.3906 62.12ZM114.396 53.192C114.524 53.096 114.524 53.24 114.396 53.624C113.884 55.32 112.78 57.432 111.084 59.96C108.14 64.344 105.596 66.12 103.452 65.288C102.972 65.064 102.54 64.744 102.156 64.328C100.684 62.76 99.9316 59.768 99.8996 55.352C96.7316 59.384 93.1956 63.064 89.2916 66.392C88.9716 66.648 88.6036 66.52 88.1876 66.008C87.7716 65.464 87.4356 64.84 87.1796 64.136C86.9236 63.4 86.8276 62.904 86.8916 62.648C87.7556 59.096 88.0276 55.48 87.7076 51.8C86.9076 52.824 85.7876 54.328 84.3476 56.312C82.9076 58.296 81.8356 59.736 81.1316 60.632C81.0356 60.76 80.7796 61.112 80.3636 61.688C79.9796 62.264 79.6436 62.744 79.3556 63.128C79.0676 63.512 78.6996 63.896 78.2516 64.28C77.8356 64.632 77.4356 64.824 77.0516 64.856C76.6676 64.92 76.2676 64.632 75.8516 63.992C75.4356 63.32 75.1316 62.728 74.9396 62.216C74.6836 61.384 74.5396 60.456 74.5076 59.432C74.4756 58.376 74.5556 57.288 74.7476 56.168C74.9396 55.016 75.1636 53.96 75.4196 53C75.6436 52.008 75.8996 50.92 76.1876 49.736C76.5076 48.52 76.7476 47.576 76.9076 46.904C76.9716 46.52 77.3716 46.76 78.1076 47.624C79.1316 48.84 79.5796 49.784 79.4516 50.456C79.3556 50.904 79.0196 52.2 78.4436 54.344C77.8996 56.456 77.5316 58.104 77.3396 59.288C77.9796 58.52 78.8116 57.32 79.8356 55.688C80.8916 54.056 81.4676 53.16 81.5636 53C84.1556 49.512 85.9636 47.176 86.9876 45.992C87.2436 45.64 87.6596 45.896 88.2356 46.76C88.8436 47.592 89.1956 48.184 89.2916 48.536C90.2516 52.12 90.6356 55.736 90.4436 59.384C93.8036 55.96 96.9716 52.36 99.9476 48.584C100.46 47.944 101.132 48.456 101.964 50.12C102.348 50.92 102.54 51.496 102.54 51.848C102.572 51.976 102.588 52.2 102.588 52.52C102.652 53.576 102.716 54.472 102.78 55.208C102.876 55.944 103.004 56.904 103.164 58.088C103.324 59.272 103.564 60.216 103.884 60.92C104.204 61.624 104.572 62.008 104.988 62.072C105.372 62.136 105.852 61.944 106.428 61.496C107.004 61.048 107.628 60.44 108.3 59.672C108.972 58.904 109.644 58.12 110.316 57.32C111.02 56.488 111.74 55.688 112.476 54.92C113.212 54.12 113.852 53.544 114.396 53.192ZM126.589 48.536C127.485 50.712 127.725 52.968 127.309 55.304C127.341 55.464 127.309 55.624 127.213 55.784C127.181 56.04 127.149 56.2 127.117 56.264C126.957 57.096 126.669 58.024 126.253 59.048C125.869 60.04 125.357 61.08 124.717 62.168C124.077 63.224 123.357 64.088 122.557 64.76C121.789 65.4 120.909 65.8 119.917 65.96C118.957 66.088 117.949 65.736 116.893 64.904C115.613 63.912 114.877 62.856 114.685 61.736C114.493 60.584 114.717 59.528 115.357 58.568C116.029 57.576 116.909 56.616 117.997 55.688C119.117 54.76 120.253 53.992 121.405 53.384C122.589 52.776 123.661 52.328 124.621 52.04C124.749 51.368 124.813 50.696 124.813 50.024C124.813 49.512 124.749 49.016 124.621 48.536C124.525 48.472 124.477 48.424 124.477 48.392C124.349 48.264 124.221 48.136 124.093 48.008C123.965 47.848 123.869 47.752 123.805 47.72C123.773 47.656 123.693 47.608 123.565 47.576C123.437 47.544 123.245 47.528 122.989 47.528C122.189 47.624 121.485 47.928 120.877 48.44C118.701 50.104 116.925 52.104 115.549 54.44C115.453 54.6 115.325 54.664 115.165 54.632C111.677 69.128 108.989 83.768 107.101 98.552C107.005 99.256 106.557 99.16 105.757 98.264C104.861 97.272 104.413 96.424 104.413 95.72C104.413 95.688 104.413 95.656 104.413 95.624C105.821 85.352 107.341 75.944 108.973 67.4C110.573 58.856 112.525 50.632 114.829 42.728C114.957 42.312 115.405 42.536 116.173 43.4C116.749 44.072 117.133 44.728 117.325 45.368C119.245 43.64 120.989 43.112 122.557 43.784C123.421 44.232 124.109 44.872 124.621 45.704C124.973 46.024 125.277 46.36 125.533 46.712C125.949 47.288 126.301 47.896 126.589 48.536ZM118.477 61.688H118.429C119.453 61.4 120.349 60.904 121.117 60.2C121.885 59.496 122.477 58.664 122.893 57.704C120.973 58.568 119.501 59.896 118.477 61.688ZM150.374 59.432C150.694 59.56 150.822 59.784 150.758 60.104C150.726 60.424 150.63 60.712 150.47 60.968C150.342 61.224 150.182 61.464 149.99 61.688C149.542 62.168 149.062 62.664 148.55 63.176C148.07 63.688 147.398 64.328 146.534 65.096C145.67 65.864 144.854 66.472 144.086 66.92C143.318 67.336 142.55 67.656 141.782 67.88C141.014 68.072 140.358 67.928 139.814 67.448C139.27 66.936 138.902 66.104 138.71 64.952C138.518 63.864 138.47 62.76 138.566 61.64C137.446 63.24 136.102 64.616 134.534 65.768C133.83 66.248 133.094 66.632 132.326 66.92C131.59 67.176 130.806 67.224 129.974 67.064C129.174 66.872 128.582 66.376 128.197 65.576C127.749 64.744 127.525 63.656 127.525 62.312C127.493 60.968 127.573 59.8 127.765 58.808C127.925 57.816 128.197 56.504 128.582 54.872C128.998 53.208 129.238 52.184 129.302 51.8C129.462 51.128 130.166 50.36 131.414 49.496C132.598 48.664 133.254 48.52 133.382 49.064C133.414 49.192 133.414 49.32 133.382 49.448C133.286 49.928 133.126 50.664 132.902 51.656C132.678 52.648 132.502 53.416 132.374 53.96C132.278 54.504 132.15 55.288 131.99 56.312C131.83 57.304 131.75 58.088 131.75 58.664C131.782 59.208 131.814 59.96 131.846 60.92C132.006 62.008 132.39 62.696 132.998 62.984C133.606 63.272 134.294 63.016 135.062 62.216C135.382 61.896 135.686 61.56 135.974 61.208C136.262 60.824 136.534 60.392 136.79 59.912C137.078 59.432 137.318 59.032 137.51 58.712C137.734 58.36 137.974 57.88 138.23 57.272C138.518 56.632 138.726 56.2 138.854 55.976C138.982 55.72 139.19 55.224 139.478 54.488C139.766 53.752 139.942 53.304 140.006 53.144C140.07 52.984 140.246 52.504 140.534 51.704C140.854 50.904 141.03 50.472 141.062 50.408C141.254 49.864 141.974 49.208 143.222 48.44C144.502 47.64 145.11 47.592 145.046 48.296C145.014 48.36 144.998 48.424 144.998 48.488C144.166 51.368 143.526 54.296 143.078 57.272C143.046 57.432 142.982 57.752 142.886 58.232C142.79 58.712 142.726 59.112 142.694 59.432C142.662 59.752 142.63 60.136 142.598 60.584C142.566 61 142.582 61.384 142.646 61.736C142.71 62.088 142.806 62.392 142.934 62.648C143.158 63.032 143.382 63.32 143.606 63.512C143.83 63.704 144.054 63.8 144.278 63.8C144.534 63.768 144.758 63.72 144.95 63.656C145.174 63.56 145.414 63.384 145.67 63.128C145.926 62.872 146.134 62.664 146.294 62.504C146.454 62.344 146.662 62.104 146.918 61.784C147.206 61.464 147.398 61.24 147.494 61.112C148.774 59.672 149.734 59.112 150.374 59.432ZM170.472 47.768C171.208 47.48 171.544 47.592 171.48 48.104C171.416 48.84 170.872 49.72 169.848 50.744C169.464 51.128 169.128 51.384 168.84 51.512C165.704 52.696 162.648 54.04 159.672 55.544C160.28 56.408 160.584 57.384 160.584 58.472C160.616 59.528 160.36 60.504 159.816 61.4C159.176 62.744 158.248 64.008 157.032 65.192C155.816 66.344 154.424 67.208 152.856 67.784C151.32 68.328 149.8 68.232 148.296 67.496C147.4 67.048 146.856 66.472 146.664 65.768C146.44 65.032 146.536 64.264 146.952 63.464C147.336 62.632 147.768 61.896 148.248 61.256C148.76 60.584 149.304 59.96 149.88 59.384C150.968 58.328 152.12 57.352 153.336 56.456C152.12 55.08 151.432 53.784 151.272 52.568C151.144 51.352 151.544 49.8 152.472 47.912C153.496 46.024 154.888 44.472 156.648 43.256C158.408 42.04 160.36 41.32 162.504 41.096C163.272 41 163.4 41.432 162.888 42.392C162.312 43.448 161.56 44.248 160.632 44.792C160.376 44.952 160.152 45.032 159.96 45.032C158.232 45.192 156.92 45.96 156.024 47.336C155.128 48.68 155.128 50.104 156.024 51.608C156.536 52.312 157.128 52.952 157.8 53.528C161.896 51.288 166.12 49.368 170.472 47.768ZM153.672 63.944C154.696 63.816 155.448 63.544 155.928 63.128C156.408 62.712 156.6 62.216 156.504 61.64C156.44 61.032 156.264 60.44 155.976 59.864C155.688 59.256 155.304 58.664 154.824 58.088C152.424 59.496 151.096 60.696 150.84 61.688C150.616 62.488 150.808 63.08 151.416 63.464C152.024 63.848 152.776 64.008 153.672 63.944ZM275.856 4.376C276.08 4.888 276.192 5.512 276.192 6.248C276.192 6.984 276.096 7.768 275.904 8.6C275.744 9.432 275.52 10.296 275.232 11.192C274.976 12.056 274.656 12.952 274.272 13.88C273.92 14.776 273.584 15.608 273.264 16.376C272.944 17.112 272.624 17.864 272.304 18.632C271.984 19.4 271.76 19.976 271.632 20.36C267.952 30.44 263.632 40.776 258.672 51.368C258.544 51.688 258.16 52.552 257.52 53.96C256.912 55.368 256.288 56.792 255.648 58.232C255.04 59.64 254.24 61.336 253.248 63.32C252.288 65.272 251.344 67.096 250.416 68.792C249.488 70.456 248.448 72.12 247.296 73.784C246.176 75.48 245.088 76.872 244.032 77.96C243.008 79.08 241.936 79.896 240.816 80.408C239.728 80.952 238.704 81.048 237.744 80.696C237.264 80.536 236.864 80.248 236.544 79.832C236.224 79.416 236.016 78.888 235.92 78.248C235.824 77.64 235.76 77.016 235.728 76.376C235.696 75.768 235.728 75.064 235.824 74.264C235.92 73.464 236 72.776 236.064 72.2C236.16 71.656 236.272 71.048 236.4 70.376C236.528 69.704 236.608 69.272 236.64 69.08C237.056 66.168 237.84 61.752 238.992 55.832C240.144 49.912 240.944 45.416 241.392 42.344C241.424 42.024 241.488 41.528 241.584 40.856C241.936 38.648 242.192 36.936 242.352 35.72C242.512 34.504 242.672 32.808 242.832 30.632C242.992 28.456 243.024 26.616 242.928 25.112C242.864 23.608 242.656 21.96 242.304 20.168C241.952 18.344 241.44 16.712 240.768 15.272C240.032 13.672 239.056 12.392 237.84 11.432C236.656 10.472 235.344 9.864 233.904 9.608C232.464 9.352 230.976 9.272 229.44 9.368C227.904 9.464 226.304 9.768 224.64 10.28C223.008 10.792 221.504 11.352 220.128 11.96C218.752 12.568 217.392 13.256 216.048 14.024C209.744 17.576 204.128 22.04 199.2 27.416C194.304 32.76 190.336 38.744 187.296 45.368C185.824 48.728 184.928 52.248 184.608 55.928C184.288 59.608 184.56 63.24 185.424 66.824C185.456 66.856 185.472 66.904 185.472 66.968C185.6 67.48 185.712 67.912 185.808 68.264C185.904 68.584 186.064 69.064 186.288 69.704C186.544 70.344 186.784 70.856 187.008 71.24C187.264 71.624 187.568 71.96 187.92 72.248C188.304 72.536 188.688 72.648 189.072 72.584C189.552 72.488 189.76 72.632 189.696 73.016C189.632 73.752 189.056 74.632 187.968 75.656C187.424 76.2 186.96 76.504 186.576 76.568C185.264 76.76 184.144 76.296 183.216 75.176C182.32 74.088 181.68 72.696 181.296 71C180.912 69.304 180.64 67.448 180.48 65.432C180.352 63.384 180.32 61.608 180.384 60.104C180.448 58.6 180.544 57.4 180.672 56.504C182.08 46.648 187.92 36.312 198.192 25.496C199.44 24.184 200.944 22.744 202.704 21.176C204.464 19.576 206.576 17.848 209.04 15.992C211.504 14.104 214 12.36 216.528 10.76C219.088 9.16 221.744 7.816 224.496 6.72799C227.28 5.64 229.872 4.968 232.272 4.712C234.672 4.456 236.944 4.84 239.088 5.86399C241.232 6.888 242.976 8.616 244.32 11.048C245.024 12.328 245.584 13.784 246 15.416C246.416 17.048 246.688 18.552 246.816 19.928C246.944 21.272 246.976 22.952 246.912 24.968C246.848 26.952 246.768 28.488 246.672 29.576C246.576 30.664 246.416 32.216 246.192 34.232C245.872 37.144 245.44 40.184 244.896 43.352C244.384 46.52 243.728 50.152 242.928 54.248C242.16 58.344 241.6 61.352 241.248 63.272C241.152 63.752 241.008 64.44 240.816 65.336C240.656 66.232 240.512 66.984 240.384 67.592C240.288 68.168 240.16 68.92 240 69.848C239.872 70.776 239.824 71.512 239.856 72.056C239.888 72.6 239.952 73.304 240.048 74.168C240.08 74.328 240.112 74.552 240.144 74.84C240.304 75.704 240.464 76.184 240.624 76.28C240.784 76.376 241.248 76.248 242.016 75.896C242.592 75.672 243.216 75.096 243.888 74.168C244.56 73.272 245.12 72.376 245.568 71.48C246.016 70.616 246.528 69.592 247.104 68.408C247.68 67.224 248.064 66.472 248.256 66.152C250.24 62.536 252.448 58.104 254.88 52.856C259.36 43.288 263.392 33.736 266.976 24.2C267.104 23.784 267.344 23.192 267.696 22.424C268.048 21.624 268.4 20.84 268.752 20.072C269.104 19.272 269.488 18.376 269.904 17.384C270.32 16.36 270.672 15.432 270.96 14.6C271.248 13.736 271.504 12.824 271.728 11.864C271.984 10.904 272.096 10.104 272.064 9.464C272.064 8.792 271.968 8.136 271.776 7.496C271.488 6.888 271.904 6.088 273.024 5.096C274.112 4.104 274.944 3.752 275.52 4.04C275.68 4.104 275.792 4.216 275.856 4.376ZM294.079 57.464C294.367 57.784 294.351 58.216 294.031 58.76C293.711 59.304 293.359 59.752 292.975 60.104C292.943 60.136 292.879 60.2 292.783 60.296C286.479 65.992 282.783 66.872 281.695 62.936C281.407 61.944 281.231 60.936 281.167 59.912C280.719 60.616 280.255 61.288 279.775 61.928C278.719 63.24 277.535 64.424 276.223 65.48C274.911 66.536 273.647 67.048 272.431 67.016C271.535 66.984 270.655 66.504 269.791 65.576C268.959 64.616 268.287 63.592 267.775 62.504C266.975 60.872 266.703 59.144 266.959 57.32C267.247 55.464 267.807 53.752 268.639 52.184C269.503 50.616 270.591 49.16 271.903 47.816C274.015 45.672 275.855 44.712 277.423 44.936C278.863 45.16 280.383 46.504 281.983 48.968C282.239 48.104 282.447 47.272 282.607 46.472C282.671 46.088 283.087 46.328 283.855 47.192C284.879 48.376 285.327 49.32 285.199 50.024C285.167 50.056 285.151 50.088 285.151 50.12C285.151 50.152 285.151 50.168 285.151 50.168V50.216C285.183 53.224 285.279 55.704 285.439 57.656C285.439 57.72 285.455 57.912 285.487 58.232C285.519 58.552 285.535 58.792 285.535 58.952C285.567 59.08 285.599 59.288 285.631 59.576C285.695 59.864 285.759 60.104 285.823 60.296C285.919 60.456 286.031 60.632 286.159 60.824C286.287 60.984 286.431 61.112 286.591 61.208C286.847 61.304 287.071 61.368 287.263 61.4C287.487 61.432 287.743 61.368 288.031 61.208C288.351 61.048 288.607 60.904 288.799 60.776C289.023 60.648 289.279 60.456 289.567 60.2C289.887 59.944 290.127 59.736 290.287 59.576C290.479 59.416 290.687 59.224 290.911 59C291.167 58.776 291.343 58.616 291.439 58.52C292.719 57.336 293.599 56.984 294.079 57.464ZM272.719 62.12C276.463 60.168 279.327 56.456 281.311 50.984C281.183 50.824 281.071 50.664 280.975 50.504C280.495 49.736 279.919 49.288 279.247 49.16C278.575 49 277.919 49.064 277.279 49.352C276.639 49.64 275.967 50.088 275.263 50.696C274.591 51.272 274.015 51.848 273.535 52.424C273.055 53 272.623 53.576 272.239 54.152C271.247 55.592 270.479 57.32 269.935 59.336C269.295 61.704 269.647 62.824 270.991 62.696C271.471 62.664 272.047 62.472 272.719 62.12ZM313.78 59.432C314.1 59.56 314.228 59.784 314.164 60.104C314.132 60.424 314.036 60.712 313.876 60.968C313.748 61.224 313.588 61.464 313.396 61.688C312.948 62.168 312.468 62.664 311.956 63.176C311.476 63.688 310.804 64.328 309.94 65.096C309.076 65.864 308.26 66.472 307.492 66.92C306.724 67.336 305.956 67.656 305.188 67.88C304.42 68.072 303.764 67.928 303.22 67.448C302.676 66.936 302.308 66.104 302.116 64.952C301.924 63.864 301.876 62.76 301.972 61.64C300.852 63.24 299.508 64.616 297.94 65.768C297.236 66.248 296.5 66.632 295.732 66.92C294.996 67.176 294.212 67.224 293.38 67.064C292.58 66.872 291.988 66.376 291.604 65.576C291.156 64.744 290.932 63.656 290.932 62.312C290.9 60.968 290.98 59.8 291.172 58.808C291.332 57.816 291.604 56.504 291.988 54.872C292.404 53.208 292.644 52.184 292.708 51.8C292.868 51.128 293.572 50.36 294.82 49.496C296.004 48.664 296.66 48.52 296.788 49.064C296.82 49.192 296.82 49.32 296.788 49.448C296.692 49.928 296.532 50.664 296.308 51.656C296.084 52.648 295.908 53.416 295.78 53.96C295.684 54.504 295.556 55.288 295.396 56.312C295.236 57.304 295.156 58.088 295.156 58.664C295.188 59.208 295.22 59.96 295.252 60.92C295.412 62.008 295.796 62.696 296.404 62.984C297.012 63.272 297.7 63.016 298.468 62.216C298.788 61.896 299.092 61.56 299.38 61.208C299.668 60.824 299.94 60.392 300.196 59.912C300.484 59.432 300.724 59.032 300.916 58.712C301.14 58.36 301.38 57.88 301.636 57.272C301.924 56.632 302.132 56.2 302.26 55.976C302.388 55.72 302.596 55.224 302.884 54.488C303.172 53.752 303.348 53.304 303.412 53.144C303.476 52.984 303.652 52.504 303.94 51.704C304.26 50.904 304.436 50.472 304.468 50.408C304.66 49.864 305.38 49.208 306.628 48.44C307.908 47.64 308.516 47.592 308.452 48.296C308.42 48.36 308.404 48.424 308.404 48.488C307.572 51.368 306.932 54.296 306.484 57.272C306.452 57.432 306.388 57.752 306.292 58.232C306.196 58.712 306.132 59.112 306.1 59.432C306.068 59.752 306.036 60.136 306.004 60.584C305.972 61 305.988 61.384 306.052 61.736C306.116 62.088 306.212 62.392 306.34 62.648C306.564 63.032 306.788 63.32 307.012 63.512C307.236 63.704 307.46 63.8 307.684 63.8C307.94 63.768 308.164 63.72 308.356 63.656C308.58 63.56 308.82 63.384 309.076 63.128C309.332 62.872 309.54 62.664 309.7 62.504C309.86 62.344 310.068 62.104 310.324 61.784C310.612 61.464 310.804 61.24 310.9 61.112C312.18 59.672 313.14 59.112 313.78 59.432ZM325.24 60.536C325.56 59.896 326.344 59.24 327.592 58.568C328.712 57.928 329.256 57.896 329.224 58.472C329.224 58.632 329.16 58.84 329.032 59.096C328.552 60.056 328.104 60.904 327.688 61.64C327.304 62.376 326.728 63.288 325.96 64.376C325.224 65.432 324.504 66.296 323.8 66.968C323.096 67.608 322.248 68.152 321.256 68.6C320.296 69.016 319.336 69.16 318.376 69.032C317.608 68.904 316.92 68.632 316.312 68.216C315.736 67.8 315.256 67.256 314.872 66.584C314.488 65.88 314.168 65.208 313.912 64.568C313.656 63.896 313.448 63.096 313.288 62.168C313.128 61.208 313.016 60.44 312.952 59.864C312.888 59.288 312.824 58.584 312.76 57.752C312.376 52.408 312.52 46.872 313.192 41.144C313.896 35.416 314.968 29.112 316.408 22.232C316.536 21.56 317.224 20.792 318.472 19.928C319.688 19.128 320.36 19 320.488 19.544C320.488 19.64 320.472 19.752 320.44 19.88C318.872 27.432 317.752 35.048 317.08 42.728C316.888 45.16 316.744 47.048 316.648 48.392C316.584 49.736 316.6 51.464 316.696 53.576C316.792 55.688 317.032 57.56 317.416 59.192C317.768 60.6 318.232 61.752 318.808 62.648C319.384 63.544 320.008 64.104 320.68 64.328C321.384 64.552 322.136 64.36 322.936 63.752C323.736 63.112 324.504 62.04 325.24 60.536ZM359.052 34.952C359.628 34.92 360.204 35.496 360.78 36.68C361.42 37.928 361.516 38.664 361.068 38.888L360.876 38.984L338.94 40.568C334.78 54.008 331.852 67.72 330.156 81.704C330.06 82.6 329.5 82.52 328.476 81.464C327.388 80.344 326.716 79.224 326.46 78.104C326.396 77.88 326.364 77.704 326.364 77.576C327.836 65.16 330.332 52.952 333.852 40.952L325.26 41.576C324.716 41.608 324.14 41.032 323.532 39.848C322.924 38.6 322.844 37.848 323.292 37.592C323.356 37.56 323.42 37.544 323.484 37.544L335.052 36.728C336.3 32.344 338.092 26.392 340.428 18.872C340.588 18.328 341.164 18.616 342.156 19.736C343.404 21.112 344.044 22.328 344.076 23.384L344.028 23.864C342.428 28.984 341.148 33.144 340.188 36.344L359.052 34.952Z" fill="#4CBFA6" fill-opacity="0.89"/>
</g>
<defs>
<filter id="filter0_i_1_3" x="0.144012" y="0.151993" width="361.596" height="103.456" filterUnits="userSpaceOnUse" color-interpolation-filters="sRGB">
<feFlood flood-opacity="0" result="BackgroundImageFix"/>
<feBlend mode="normal" in="SourceGraphic" in2="BackgroundImageFix" result="shape"/>
<feColorMatrix in="SourceAlpha" type="matrix" values="0 0 0 0 0 0 0 0 0 0 0 0 0 0 0 0 0 0 127 0" result="hardAlpha"/>
<feOffset dy="4"/>
<feGaussianBlur stdDeviation="2"/>
<feComposite in2="hardAlpha" operator="arithmetic" k2="-1" k3="1"/>
<feColorMatrix type="matrix" values="0 0 0 0 0 0 0 0 0 0 0 0 0 0 0 0 0 0 0.25 0"/>
<feBlend mode="normal" in2="shape" result="effect1_innerShadow_1_3"/>
</filter>
</defs>
</svg>
